# xmcd
#
# Track frame offsets:
#	150
#	5207
#	24117
#	47520
#	73272
#	98585
#	131625
#	138080
#	160412
#	192562
#
# Disc length: 2785
#
# Revision: 4
# Processed by: cddbd v1.5.1PL0 Copyright (c) Steve Scherf et al.
# Submitted via: CDex 1.40PlusFr
# Normalized: r3:TRMNUM
#
DISCID=840adf0a
DTITLE=Septic Flesh - Forgotten Path
DYEAR=1900
DGENRE=Death Metal
TTITLE0=Intro
TTITLE1=Power Of The Dark
TTITLE2=Melting Brains
TTITLE3=Unholy Ritual
TTITLE4=Curse Of Death
TTITLE5=Forgotten Path
TTITLE6=Outro
TTITLE7=Power Of The Dark (live)
TTITLE8=Forgotten Path (live)
TTITLE9=Melting Brains (live)
EXTD=ID3G: 22
EXTT0=
EXTT1=
EXTT2=
EXTT3=
EXTT4=
EXTT5=
EXTT6=
EXTT7=
EXTT8=
EXTT9=
PLAYORDER=
